<svg width="215" height="59" viewBox="0 0 215 59" fill="none" xmlns="http://www.w3.org/2000/svg">
<rect width="215" height="59" fill="#F5F5F5"/>
<path d="M18.072 58.016C17.9013 58.016 17.816 57.9307 17.816 57.76C17.816 56.5653 17.88 55.264 18.008 53.856C12.888 53.0453 8.74933 50.9973 5.592 47.712C3.97067 45.9627 2.73333 43.9787 1.88 41.76C1.02667 39.5413 0.6 37.0667 0.6 34.336C0.6 29.8133 1.83733 25.5253 4.312 21.472C5.54933 19.424 6.97867 17.632 8.6 16.096C10.264 14.56 12.0987 13.2587 14.104 12.192C17.9867 10.1867 22.4453 9.184 27.48 9.184C28.5893 9.184 29.72 9.248 30.872 9.376C32.024 9.46133 33.1973 9.61066 34.392 9.824C36.568 6.45333 38.9787 3.33866 41.624 0.479996L41.88 0.351997C41.9227 0.351997 41.944 0.394663 41.944 0.479996C41.944 0.735998 41.816 1.03467 41.56 1.376C40.1947 2.99733 38.9787 4.53333 37.912 5.984C36.8453 7.43466 35.928 8.77866 35.16 10.016C37.2507 10.4853 39.4053 11.1253 41.624 11.936C41.88 11.5093 42.1573 11.104 42.456 10.72C42.7547 10.336 43.0533 9.952 43.352 9.568C43.608 9.22667 43.8213 9.056 43.992 9.056C44.2053 9.056 44.312 9.16267 44.312 9.376C44.2693 9.41867 44.248 9.48266 44.248 9.568C43.1813 11.1467 42.328 13.088 41.688 15.392C41.048 17.6533 40.5787 20.2347 40.28 23.136C40.2373 23.5627 39.9387 24.032 39.384 24.544C38.8293 25.056 38.3173 25.312 37.848 25.312C37.592 25.312 37.464 24.7573 37.464 23.648C37.464 21.1733 38.2107 18.3787 39.704 15.264C39.3627 14.7947 38.7013 14.304 37.72 13.792C36.7387 13.2373 35.4373 12.6827 33.816 12.128C31.1707 16.5653 28.7813 21.4507 26.648 26.784C26.9893 27.296 27.416 27.552 27.928 27.552C28.2267 27.552 27.4373 28.32 25.56 29.856C24.5787 32.5013 23.6827 35.232 22.872 38.048C22.7867 39.2427 22.5733 40.608 22.232 42.144C21.9333 43.68 21.6133 45.3653 21.272 47.2L20.888 49.12C20.6747 50.016 20.376 50.5493 19.992 50.72C19.9493 51.0613 19.8853 51.424 19.8 51.808C19.7573 52.192 19.7147 52.576 19.672 52.96C20.3973 53.1307 21.1227 53.2373 21.848 53.28C22.616 53.3227 23.384 53.344 24.152 53.344C30.7653 53.344 35.5227 50.272 38.424 44.128C39.192 42.464 39.576 41.0347 39.576 39.84C39.576 39.072 39.3627 38.6027 38.936 38.432C38.8507 38.432 38.808 38.4107 38.808 38.368C38.808 37.984 39.4053 37.792 40.6 37.792C41.88 37.792 42.52 38.6453 42.52 40.352C42.52 44.576 40.2587 48.032 35.736 50.72C31.8533 53.1093 27.6933 54.304 23.256 54.304C21.976 54.304 20.7173 54.24 19.48 54.112C19.4373 54.4107 19.3947 54.7947 19.352 55.264C19.3093 55.776 19.2453 56.3307 19.16 56.928C19.032 57.6533 18.6693 58.016 18.072 58.016ZM18.2 52.576C18.456 50.3147 18.904 47.8827 19.544 45.28C20.184 42.6347 20.9733 39.84 21.912 36.896V35.424C21.912 32.608 21.528 30.048 20.76 27.744C19.0107 23.1787 16.3013 20.896 12.632 20.896C12.4187 20.896 12.2053 20.9173 11.992 20.96C11.7787 20.96 11.5653 20.9813 11.352 21.024C12.9733 21.024 13.784 21.8133 13.784 23.392C13.784 24.0747 13.592 24.608 13.208 24.992C12.568 23.4987 11.6293 22.752 10.392 22.752C9.96533 22.752 9.47467 22.8587 8.92 23.072C8.87733 22.9867 8.856 22.816 8.856 22.56C8.856 20.8107 10.136 19.936 12.696 19.936C14.6587 19.936 16.5147 20.6613 18.264 22.112C19.8427 23.4347 20.9733 25.0347 21.656 26.912C22.5093 28.96 22.9573 31.264 23 33.824C23.2133 33.0987 23.448 32.3733 23.704 31.648C24.0027 30.9227 24.3013 30.2187 24.6 29.536C24.216 29.024 24.024 28.4267 24.024 27.744C24.024 27.36 24.2587 26.8267 24.728 26.144C25.1973 25.4613 25.624 25.0987 26.008 25.056L26.136 25.632C27.2453 23.072 28.312 20.704 29.336 18.528C30.36 16.3093 31.448 14.368 32.6 12.704L33.176 11.872C30.36 10.848 27.672 10.336 25.112 10.336C18.9253 10.336 13.8907 12.5333 10.008 16.928C6.08267 21.152 4.12 26.4 4.12 32.672C4.12 37.408 5.4 41.6107 7.96 45.28C10.5627 48.8213 13.976 51.2533 18.2 52.576ZM48.532 53.152C46.9533 53.152 46.164 52 46.164 49.696C46.164 49.0987 46.228 48.4373 46.356 47.712C46.484 46.9867 46.6547 46.2187 46.868 45.408C47.2947 43.9147 47.9347 42.2293 48.788 40.352C50.068 37.7067 51.1347 36.384 51.988 36.384C52.7987 36.384 53.46 36.832 53.972 37.728C54.3133 37.6 54.5907 37.536 54.804 37.536C55.9987 37.536 56.596 38.432 56.596 40.224C56.596 40.992 56.4467 41.888 56.148 42.912C55.8493 43.936 55.3373 45.216 54.612 46.752C55.6787 47.7333 56.724 48.224 57.748 48.224C58.5587 48.224 59.3267 48.032 60.052 47.648C60.7773 47.2213 61.588 46.4107 62.484 45.216C62.5693 45.1307 62.6973 45.088 62.868 45.088C62.996 45.088 63.06 45.216 63.06 45.472C63.06 45.728 62.9533 46.0053 62.74 46.304C62.1853 47.0293 61.4813 47.6907 60.628 48.288C59.8173 48.8427 58.7933 49.12 57.556 49.12C56.3187 49.12 55.2093 48.6933 54.228 47.84C52.6067 51.3813 50.708 53.152 48.532 53.152ZM53.844 45.92C54.1853 45.152 54.4413 44.3627 54.612 43.552C54.7827 42.7413 54.868 41.8667 54.868 40.928C54.868 39.4773 54.4413 38.752 53.588 38.752C52.7773 38.752 52.372 39.5413 52.372 41.12C52.372 41.8027 52.5213 42.6347 52.82 43.616C53.1613 44.5973 53.5027 45.3653 53.844 45.92ZM49.684 51.36C50.2813 51.36 51.028 50.784 51.924 49.632C52.308 49.1627 52.628 48.6933 52.884 48.224C53.14 47.712 53.3107 47.3707 53.396 47.2C52.756 46.4747 52.2013 45.7067 51.732 44.896C51.2627 44.0853 50.9853 43.2533 50.9 42.4C50.388 42.8267 49.8547 43.936 49.3 45.728C48.7453 47.52 48.468 48.8213 48.468 49.632C48.468 50.784 48.8733 51.36 49.684 51.36ZM68.9555 52.768C64.6462 52.768 62.4915 49.5893 62.4915 43.232C62.4915 37.0027 64.5395 30.24 68.6355 22.944C72.6462 15.6907 76.4435 12.064 80.0275 12.064C81.3075 12.064 82.1608 12.9387 82.5875 14.688V15.52C82.5875 18.592 80.2195 23.776 75.4835 31.072C73.4782 34.2293 71.5795 36.9813 69.7875 39.328C68.0382 41.6747 66.3955 43.6587 64.8595 45.28C65.3715 49.12 67.1422 51.04 70.1715 51.04C72.0062 51.04 73.5635 50.528 74.8435 49.504C76.1235 48.4373 77.4888 47.008 78.9395 45.216C79.1955 44.96 79.3662 44.832 79.4515 44.832C79.5795 44.832 79.6435 44.9387 79.6435 45.152C79.6435 45.4507 79.4942 45.8347 79.1955 46.304C77.3608 48.6507 75.6328 50.3147 74.0115 51.296C72.3902 52.2773 70.7048 52.768 68.9555 52.768ZM64.9235 43.68C67.2275 41.4187 70.2355 36.9387 73.9475 30.24C77.8728 23.1147 79.8355 18.208 79.8355 15.52C79.8355 14.3253 79.4942 13.728 78.8115 13.728C76.1662 13.728 73.1582 17.5253 69.7875 25.12C68.2088 28.8747 66.9928 32.288 66.1395 35.36C65.3288 38.432 64.9235 41.2053 64.9235 43.68ZM85.393 52.768C81.0837 52.768 78.929 49.5893 78.929 43.232C78.929 37.0027 80.977 30.24 85.073 22.944C89.0837 15.6907 92.881 12.064 96.465 12.064C97.745 12.064 98.5983 12.9387 99.025 14.688V15.52C99.025 18.592 96.657 23.776 91.921 31.072C89.9157 34.2293 88.017 36.9813 86.225 39.328C84.4757 41.6747 82.833 43.6587 81.297 45.28C81.809 49.12 83.5797 51.04 86.609 51.04C88.4437 51.04 90.001 50.528 91.281 49.504C92.561 48.4373 93.9263 47.008 95.377 45.216C95.633 44.96 95.8037 44.832 95.889 44.832C96.017 44.832 96.081 44.9387 96.081 45.152C96.081 45.4507 95.9317 45.8347 95.633 46.304C93.7983 48.6507 92.0703 50.3147 90.449 51.296C88.8277 52.2773 87.1423 52.768 85.393 52.768ZM81.361 43.68C83.665 41.4187 86.673 36.9387 90.385 30.24C94.3103 23.1147 96.273 18.208 96.273 15.52C96.273 14.3253 95.9317 13.728 95.249 13.728C92.6037 13.728 89.5957 17.5253 86.225 25.12C84.6463 28.8747 83.4303 32.288 82.577 35.36C81.7663 38.432 81.361 41.2053 81.361 43.68ZM100.517 52.512C98.7672 52.512 97.2525 52.0213 95.9725 51.04C94.7352 50.016 94.1165 48.48 94.1165 46.432C94.1165 44.1707 94.8632 41.8453 96.3565 39.456C97.1245 38.2187 98.0632 37.2373 99.1725 36.512C100.282 35.744 101.263 35.36 102.117 35.36C103.354 35.36 103.973 36.1067 103.973 37.6C103.973 38.88 103.119 40.4373 101.413 42.272C99.8338 43.8933 98.3405 45.0027 96.9325 45.6C96.8898 45.7707 96.8472 45.9627 96.8045 46.176C96.8045 46.3467 96.8045 46.5387 96.8045 46.752C96.8045 49.44 98.4045 50.784 101.605 50.784C103.439 50.784 105.146 50.2293 106.725 49.12C108.346 47.968 109.754 46.6667 110.949 45.216C111.162 44.96 111.354 44.832 111.525 44.832C111.695 44.832 111.781 44.9173 111.781 45.088C111.781 45.2587 111.695 45.4933 111.525 45.792C111.354 46.048 111.226 46.2187 111.141 46.304C110.458 47.2427 109.733 48.0747 108.965 48.8C108.239 49.5253 107.258 50.2293 106.021 50.912C105.125 51.4667 104.186 51.872 103.205 52.128C102.266 52.384 101.37 52.512 100.517 52.512ZM97.1885 44.256C97.7432 43.9573 98.2765 43.616 98.7885 43.232C99.3432 42.8053 99.8765 42.3147 100.389 41.76C101.541 40.3947 102.117 39.2 102.117 38.176C102.117 37.536 101.925 37.216 101.541 37.216C101.199 37.216 100.751 37.5147 100.197 38.112C99.6845 38.6667 99.1938 39.3707 98.7245 40.224C97.9138 41.888 97.4018 43.232 97.1885 44.256ZM115.859 52.448C114.28 52.448 113.043 51.9147 112.147 50.848C111.251 49.7387 110.803 48.3733 110.803 46.752C110.803 44.7467 111.784 42.528 113.747 40.096C115.752 37.7067 117.757 36.512 119.763 36.512C121.299 36.512 122.067 37.088 122.067 38.24C122.067 38.6667 121.768 39.4347 121.171 40.544C120.616 41.696 120.211 42.272 119.955 42.272C119.827 42.272 119.741 42.1227 119.699 41.824C119.699 41.6533 119.741 41.376 119.827 40.992C119.955 40.608 120.019 40.3307 120.019 40.16C120.019 39.0933 119.379 38.56 118.099 38.56C116.691 38.56 115.475 39.456 114.451 41.248C113.555 42.8267 113.107 44.4053 113.107 45.984C113.107 49.1413 114.429 50.72 117.075 50.72C119.208 50.72 121 50.208 122.451 49.184C123.901 48.1173 125.331 46.7733 126.739 45.152C126.952 44.9387 127.144 44.832 127.315 44.832C127.485 44.832 127.571 44.9173 127.571 45.088C127.571 45.2587 127.485 45.4507 127.315 45.664C127.187 45.8773 127.059 46.0907 126.931 46.304C126.376 47.0293 125.693 47.7973 124.883 48.608C124.115 49.4187 123.24 50.1227 122.259 50.72C121.064 51.4027 119.933 51.8507 118.867 52.064C117.8 52.32 116.797 52.448 115.859 52.448ZM134.615 52.768C132.14 52.768 130.199 52.0427 128.791 50.592C127.426 49.1413 126.743 47.1147 126.743 44.512C126.743 42.3787 127.127 40.288 127.895 38.24C126.615 38.24 125.612 38.112 124.887 37.856C123.692 37.6 123.095 37.152 123.095 36.512C123.095 36.256 123.287 36.128 123.671 36.128C123.97 36.128 124.311 36.1493 124.695 36.192C125.122 36.192 125.612 36.2133 126.167 36.256C126.764 36.2987 127.276 36.3413 127.703 36.384C128.13 36.384 128.471 36.384 128.727 36.384L130.967 31.136C131.479 29.8987 131.948 28.896 132.375 28.128C132.802 27.36 133.143 26.8267 133.399 26.528C134.039 25.8453 134.892 25.504 135.959 25.504C136.983 25.504 137.495 25.7173 137.495 26.144L135.255 29.664C134.444 30.944 133.719 32.16 133.079 33.312C132.482 34.464 131.948 35.552 131.479 36.576C134.124 36.576 136.236 36.576 137.815 36.576C139.394 36.5333 140.46 36.512 141.015 36.512H141.527C142.039 36.512 142.295 36.576 142.295 36.704C142.295 36.96 141.783 37.1947 140.759 37.408C138.924 37.6213 137.196 37.792 135.575 37.92C133.954 38.048 132.418 38.112 130.967 38.112C130.54 39.2213 130.178 40.3947 129.879 41.632C129.623 42.8267 129.495 43.9787 129.495 45.088C129.495 46.752 129.879 48.2027 130.647 49.44C131.415 50.6773 132.78 51.296 134.743 51.296C137.09 51.296 138.946 50.7413 140.311 49.632C141.719 48.48 143.148 47.008 144.599 45.216C144.812 44.96 145.004 44.832 145.175 44.832C145.303 44.832 145.367 44.9387 145.367 45.152C145.367 45.4507 145.196 45.8347 144.855 46.304C143.02 48.6507 141.292 50.3147 139.671 51.296C138.092 52.2773 136.407 52.768 134.615 52.768ZM151.017 52.512C149.267 52.512 147.753 52.0213 146.473 51.04C145.235 50.016 144.617 48.48 144.617 46.432C144.617 44.1707 145.363 41.8453 146.857 39.456C147.625 38.2187 148.563 37.2373 149.673 36.512C150.782 35.744 151.763 35.36 152.617 35.36C153.854 35.36 154.473 36.1067 154.473 37.6C154.473 38.88 153.619 40.4373 151.913 42.272C150.334 43.8933 148.841 45.0027 147.433 45.6C147.39 45.7707 147.347 45.9627 147.305 46.176C147.305 46.3467 147.305 46.5387 147.305 46.752C147.305 49.44 148.905 50.784 152.105 50.784C153.939 50.784 155.646 50.2293 157.225 49.12C158.846 47.968 160.254 46.6667 161.449 45.216C161.662 44.96 161.854 44.832 162.025 44.832C162.195 44.832 162.281 44.9173 162.281 45.088C162.281 45.2587 162.195 45.4933 162.025 45.792C161.854 46.048 161.726 46.2187 161.641 46.304C160.958 47.2427 160.233 48.0747 159.465 48.8C158.739 49.5253 157.758 50.2293 156.521 50.912C155.625 51.4667 154.686 51.872 153.705 52.128C152.766 52.384 151.87 52.512 151.017 52.512ZM147.689 44.256C148.243 43.9573 148.777 43.616 149.289 43.232C149.843 42.8053 150.377 42.3147 150.889 41.76C152.041 40.3947 152.617 39.2 152.617 38.176C152.617 37.536 152.425 37.216 152.041 37.216C151.699 37.216 151.251 37.5147 150.697 38.112C150.185 38.6667 149.694 39.3707 149.225 40.224C148.414 41.888 147.902 43.232 147.689 44.256ZM167.831 52.768C163.521 52.768 161.367 49.5893 161.367 43.232C161.367 37.0027 163.415 30.24 167.51 22.944C171.521 15.6907 175.319 12.064 178.903 12.064C180.183 12.064 181.036 12.9387 181.463 14.688V15.52C181.463 18.592 179.095 23.776 174.359 31.072C172.353 34.2293 170.455 36.9813 168.663 39.328C166.913 41.6747 165.271 43.6587 163.735 45.28C164.247 49.12 166.017 51.04 169.047 51.04C170.881 51.04 172.439 50.528 173.719 49.504C174.999 48.4373 176.364 47.008 177.815 45.216C178.071 44.96 178.241 44.832 178.327 44.832C178.455 44.832 178.519 44.9387 178.519 45.152C178.519 45.4507 178.369 45.8347 178.071 46.304C176.236 48.6507 174.508 50.3147 172.887 51.296C171.265 52.2773 169.58 52.768 167.831 52.768ZM163.799 43.68C166.103 41.4187 169.111 36.9387 172.823 30.24C176.748 23.1147 178.711 18.208 178.711 15.52C178.711 14.3253 178.369 13.728 177.687 13.728C175.041 13.728 172.033 17.5253 168.663 25.12C167.084 28.8747 165.868 32.288 165.015 35.36C164.204 38.432 163.799 41.2053 163.799 43.68ZM184.268 52.768C179.959 52.768 177.804 49.5893 177.804 43.232C177.804 37.0027 179.852 30.24 183.948 22.944C187.959 15.6907 191.756 12.064 195.34 12.064C196.62 12.064 197.473 12.9387 197.9 14.688V15.52C197.9 18.592 195.532 23.776 190.796 31.072C188.791 34.2293 186.892 36.9813 185.1 39.328C183.351 41.6747 181.708 43.6587 180.172 45.28C180.684 49.12 182.455 51.04 185.484 51.04C187.319 51.04 188.876 50.528 190.156 49.504C191.436 48.4373 192.801 47.008 194.252 45.216C194.508 44.96 194.679 44.832 194.764 44.832C194.892 44.832 194.956 44.9387 194.956 45.152C194.956 45.4507 194.807 45.8347 194.508 46.304C192.673 48.6507 190.945 50.3147 189.324 51.296C187.703 52.2773 186.017 52.768 184.268 52.768ZM180.236 43.68C182.54 41.4187 185.548 36.9387 189.26 30.24C193.185 23.1147 195.148 18.208 195.148 15.52C195.148 14.3253 194.807 13.728 194.124 13.728C191.479 13.728 188.471 17.5253 185.1 25.12C183.521 28.8747 182.305 32.288 181.452 35.36C180.641 38.432 180.236 41.2053 180.236 43.68ZM194.946 52.384C193.196 52.384 192.322 51.5307 192.322 49.824C192.322 48.2027 193.495 45.9413 195.842 43.04C197.975 40.352 199.831 38.496 201.41 37.472C202.988 36.448 204.46 35.936 205.826 35.936C207.447 35.936 208.258 36.4053 208.258 37.344C208.258 37.5573 208.044 37.8773 207.618 38.304C207.191 38.688 206.956 38.9227 206.914 39.008C206.103 40.3307 205.698 43.0187 205.698 47.072C205.698 49.4187 206.21 50.592 207.234 50.592C208.172 50.592 209.26 50.0373 210.498 48.928C211.735 47.8187 212.887 46.5813 213.954 45.216C214.082 45.088 214.188 45.024 214.274 45.024C214.444 45.024 214.53 45.1307 214.53 45.344C214.53 45.4293 214.487 45.5787 214.402 45.792C214.359 46.0053 214.295 46.176 214.21 46.304C212.46 48.6507 210.946 50.2293 209.666 51.04C208.428 51.8507 207.212 52.256 206.018 52.256C204.098 52.256 203.159 50.208 203.202 46.112C202.391 47.5627 201.218 48.928 199.682 50.208C197.89 51.6587 196.311 52.384 194.946 52.384ZM196.674 50.656C197.399 50.656 198.167 50.3573 198.978 49.76C201.495 47.7547 203.138 44 203.906 38.496C203.778 38.496 203.692 38.4747 203.65 38.432C202.796 38.432 201.666 38.944 200.258 39.968C199.063 40.7787 198.103 41.6533 197.378 42.592C195.671 44.8107 194.818 46.7307 194.818 48.352C194.818 49.888 195.436 50.656 196.674 50.656Z" fill="black"/>
</svg>
